<?xml version="1.0" encoding="utf-8"?>
<svg viewBox="0 0 500 500" xmlns="http://www.w3.org/2000/svg">
  <path d="M 407.395 13.791 L 55.395 13.791 C 28.886 13.791 7.395 35.281 7.395 61.791 L 7.395 413.791 C 7.395 440.3 28.886 461.791 55.395 461.791 L 192.645 461.791 L 192.645 309.481 L 129.645 309.481 L 129.645 237.791 L 192.645 237.791 L 192.645 183.151 C 192.645 121.001 229.645 86.671 286.315 86.671 C 313.455 86.671 341.835 91.511 341.835 91.511 L 341.835 152.511 L 310.565 152.511 C 279.755 152.511 270.145 171.631 270.145 191.241 L 270.145 237.791 L 338.925 237.791 L 327.925 309.481 L 270.145 309.481 L 270.145 461.791 L 407.395 461.791 C 433.905 461.791 455.395 440.3 455.395 413.791 L 455.395 61.791 C 455.395 35.281 433.905 13.791 407.395 13.791 Z" style="fill: rgb(255, 255, 255);"/>
</svg>