<?xml version="1.0" encoding="utf-8"?>
<svg viewBox="0 0 500 500" xmlns="http://www.w3.org/2000/svg">
  <path d="M 247.143 125.798 C 183.543 125.798 132.243 177.098 132.243 240.698 C 132.243 304.298 183.543 355.598 247.143 355.598 C 310.743 355.598 362.043 304.298 362.043 240.698 C 362.043 177.098 310.743 125.798 247.143 125.798 Z M 247.143 315.398 C 206.043 315.398 172.443 281.898 172.443 240.698 C 172.443 199.498 205.943 165.998 247.143 165.998 C 288.343 165.998 321.843 199.498 321.843 240.698 C 321.843 281.898 288.243 315.398 247.143 315.398 L 247.143 315.398 Z M 393.543 121.098 C 393.543 135.998 381.543 147.898 366.743 147.898 C 351.843 147.898 339.943 135.898 339.943 121.098 C 339.943 106.298 351.943 94.298 366.743 94.298 C 381.543 94.298 393.543 106.298 393.543 121.098 Z M 469.643 148.298 C 467.943 112.398 459.743 80.598 433.443 54.398 C 407.243 28.198 375.443 19.998 339.543 18.198 C 302.543 16.098 191.643 16.098 154.643 18.198 C 118.843 19.898 87.043 28.098 60.743 54.298 C 34.443 80.498 26.343 112.298 24.543 148.198 C 22.443 185.198 22.443 296.098 24.543 333.098 C 26.243 368.998 34.443 400.798 60.743 426.998 C 87.043 453.198 118.743 461.398 154.643 463.198 C 191.643 465.298 302.543 465.298 339.543 463.198 C 375.443 461.498 407.243 453.298 433.443 426.998 C 459.643 400.798 467.843 368.998 469.643 333.098 C 471.743 296.098 471.743 185.298 469.643 148.298 L 469.643 148.298 Z M 421.843 372.798 C 414.043 392.398 398.943 407.498 379.243 415.398 C 349.743 427.098 279.743 424.398 247.143 424.398 C 214.543 424.398 144.443 426.998 115.043 415.398 C 95.443 407.598 80.343 392.498 72.443 372.798 C 60.743 343.298 63.443 273.298 63.443 240.698 C 63.443 208.098 60.843 137.998 72.443 108.598 C 80.243 88.998 95.343 73.898 115.043 65.998 C 144.543 54.298 214.543 56.998 247.143 56.998 C 279.743 56.998 349.843 54.398 379.243 65.998 C 398.843 73.798 413.943 88.898 421.843 108.598 C 433.543 138.098 430.843 208.098 430.843 240.698 C 430.843 273.298 433.543 343.398 421.843 372.798 Z" style="fill: rgb(255, 255, 255);"/>
</svg>